<?xml version="1.0"?>
<svg width="120" height="100" xmlns="http://www.w3.org/2000/svg" xmlns:svg="http://www.w3.org/2000/svg">
 <g class="layer">
  <title>Layer 1</title>
  <path d="m44.44,35l0,7.81l-0.14,-0.02c-0.69,-0.14 -1.41,-0.2 -2.13,-0.2c-1.39,0 -2.77,0.24 -4.1,0.71c-1.33,0.47 -2.53,1.19 -3.57,2.15c-1.04,0.95 -1.89,2.14 -2.52,3.53c-0.64,1.38 -0.96,3.01 -0.96,4.84c0,1.95 0.35,3.65 1.04,5.06c0.69,1.41 1.61,2.59 2.73,3.49c1.13,0.9 2.4,1.57 3.8,2c1.41,0.43 2.84,0.65 4.25,0.65c1.73,0 3.33,-0.16 4.75,-0.46c1.4,-0.3 2.79,-0.76 4.13,-1.35l0,-28.21l-7.28,0zm0,23.6l-0.09,0.02c-0.51,0.12 -1.05,0.18 -1.59,0.18c-0.78,0 -1.52,-0.18 -2.21,-0.54c-0.69,-0.36 -1.26,-0.92 -1.67,-1.65c-0.42,-0.73 -0.63,-1.69 -0.63,-2.83c0,-1.17 0.2,-2.14 0.6,-2.89c0.41,-0.75 0.97,-1.3 1.68,-1.65c0.71,-0.35 1.5,-0.52 2.36,-0.52c0.5,0 0.99,0.06 1.46,0.17l0.09,0.02l0,9.69zm29.44,-11.01c-1,-1.66 -2.34,-2.93 -4.01,-3.79c-0.83,-0.43 -1.71,-0.75 -2.63,-0.97c-0.92,-0.22 -1.89,-0.33 -2.88,-0.33c-2,0 -3.86,0.44 -5.52,1.3c-1.67,0.86 -3.02,2.13 -4.03,3.8c-1.01,1.66 -1.52,3.72 -1.52,6.14c0,2.42 0.51,4.48 1.52,6.15c1.01,1.66 2.37,2.94 4.03,3.82c1.66,0.87 3.52,1.31 5.52,1.31c1.96,0 3.81,-0.44 5.49,-1.31c1.68,-0.88 3.03,-2.16 4.03,-3.82c1,-1.67 1.5,-3.73 1.5,-6.15c0,-2.42 -0.5,-4.48 -1.5,-6.15zm-6.19,8.99c-0.18,0.37 -0.39,0.7 -0.62,0.98c-0.24,0.28 -0.5,0.51 -0.79,0.7c-0.58,0.36 -1.23,0.54 -1.93,0.54c-0.69,0 -1.34,-0.18 -1.92,-0.54c-0.58,-0.37 -1.06,-0.93 -1.42,-1.68c-0.35,-0.74 -0.53,-1.7 -0.53,-2.84c0,-1.17 0.18,-2.13 0.53,-2.86c0.36,-0.74 0.84,-1.29 1.42,-1.65c0.58,-0.37 1.23,-0.55 1.92,-0.55c0.7,0 1.34,0.18 1.93,0.55c0.58,0.36 1.05,0.92 1.41,1.65c0.36,0.73 0.54,1.69 0.54,2.86c0,1.14 -0.18,2.1 -0.54,2.84zm29.07,-7.88c-0.6,-1.37 -1.42,-2.52 -2.45,-3.42c-1.02,-0.9 -2.16,-1.57 -3.4,-2c-1.23,-0.44 -2.5,-0.65 -3.78,-0.65c-0.97,0 -1.88,0.1 -2.72,0.3l-0.14,0.03l0,-7.96l-7.32,0l0,28.25c1.31,0.6 2.69,1.04 4.08,1.33c1.43,0.29 2.99,0.44 4.67,0.44c1.49,0 2.98,-0.24 4.41,-0.73c1.43,-0.49 2.73,-1.22 3.87,-2.17c1.14,-0.96 2.04,-2.16 2.69,-3.57c0.65,-1.42 0.98,-3.09 0.98,-4.98c0,-1.86 -0.3,-3.5 -0.89,-4.87zm-6.93,7.85c-0.22,0.37 -0.48,0.7 -0.77,0.99c-0.3,0.28 -0.62,0.53 -0.98,0.72c-0.72,0.39 -1.49,0.58 -2.3,0.58c-0.47,0 -0.95,-0.06 -1.42,-0.18l-0.09,-0.02l0,-9.68l0.09,-0.02c0.51,-0.12 1.06,-0.18 1.63,-0.18c0.8,0 1.56,0.18 2.23,0.52c0.68,0.35 1.24,0.89 1.66,1.61c0.41,0.72 0.62,1.65 0.62,2.77c0,1.17 -0.22,2.14 -0.67,2.89zm29.31,-7.98c-0.28,-0.64 -0.62,-1.24 -1,-1.78c-0.38,-0.55 -0.81,-1.05 -1.29,-1.49c-0.96,-0.89 -2.05,-1.57 -3.26,-2.03c-1.2,-0.45 -2.47,-0.69 -3.78,-0.69c-1.91,0 -3.69,0.46 -5.3,1.36c-1.6,0.9 -2.91,2.19 -3.88,3.84c-0.97,1.65 -1.46,3.63 -1.46,5.88c0,1.77 0.32,3.38 0.96,4.78c0.64,1.4 1.53,2.59 2.65,3.55c1.12,0.95 2.44,1.69 3.91,2.19c1.47,0.5 3.09,0.76 4.81,0.76c1.25,0 2.5,-0.14 3.69,-0.42c1.17,-0.27 2.31,-0.69 3.37,-1.22l0,-5.74c-1.09,0.5 -2.15,0.89 -3.14,1.17c-1.05,0.3 -2.14,0.45 -3.24,0.45c-1.2,0 -2.26,-0.2 -3.15,-0.6c-0.91,-0.4 -1.64,-1.02 -2.17,-1.84c-0.16,-0.25 -0.3,-0.53 -0.42,-0.84l-0.06,-0.17l13.46,0c0.02,-0.37 0.06,-0.78 0.1,-1.24c0.04,-0.47 0.06,-0.95 0.06,-1.43c0,-1.69 -0.29,-3.2 -0.86,-4.49zm-12.89,2.8l0.04,-0.15c0.08,-0.29 0.17,-0.55 0.27,-0.78c0.36,-0.81 0.84,-1.42 1.41,-1.81c0.58,-0.39 1.23,-0.59 1.93,-0.59c0.61,0 1.2,0.16 1.75,0.46c0.55,0.31 1.02,0.78 1.4,1.42c0.21,0.37 0.36,0.81 0.45,1.31l0.02,0.14l-7.27,0l0,0zm-89.88,-6.7l-5.41,13.46l6.51,0l2.28,6.51l-19.75,0l12.27,-29.32l8.54,0l12.23,29.32l-8.69,0l-7.98,-19.97z" fill="#ffffff" id="svg_1"/>
 </g>
</svg>