<?xml version="1.0"?>
<svg width="120" height="100" xmlns="http://www.w3.org/2000/svg" xmlns:svg="http://www.w3.org/2000/svg">
 <g class="layer">
  <title>Layer 1</title>
  <path d="m42.89,58.92l-4.38,0l0,17.38l4.38,0l0,-17.38z" fill="#ffffff" id="svg_1"/>
  <path d="m78.25,63.9c-0.18,-0.09 -1.59,-0.93 -3.69,-0.93c-2.84,0 -4.8,1.98 -4.8,4.64c0,2.58 1.88,4.64 4.8,4.64c2.06,0 3.5,-0.82 3.69,-0.93l0,4.67c-0.55,0.15 -2.05,0.62 -4,0.62c-4.93,0 -9.26,-3.4 -9.26,-9c0,-5.19 3.92,-9 9.26,-9c2.06,0 3.58,0.5 4,0.63l0,4.66z" fill="#ffffff" id="svg_2"/>
  <path d="m32.48,63.9c-0.18,-0.09 -1.59,-0.93 -3.68,-0.93c-2.84,0 -4.81,1.98 -4.81,4.64c0,2.58 1.89,4.64 4.81,4.64c2.06,0 3.49,-0.82 3.68,-0.93l0,4.67c-0.54,0.15 -2.04,0.62 -4,0.62c-4.93,0 -9.25,-3.4 -9.25,-9c0,-5.19 3.92,-9 9.25,-9c2.06,0 3.59,0.5 4,0.63l0,4.66z" fill="#ffffff" id="svg_3"/>
  <path d="m101.22,67.61c0,4.97 -3.83,9 -9.18,9c-5.34,0 -9.17,-4.03 -9.17,-9c0,-4.97 3.83,-9 9.17,-9c5.35,0 9.18,4.03 9.18,9zm-9.18,-4.57c-2.6,0 -4.53,2.04 -4.53,4.57c0,2.53 1.93,4.57 4.53,4.57c2.6,0 4.54,-2.04 4.54,-4.57c0,-2.53 -1.94,-4.57 -4.54,-4.57z" fill="#ffffff" id="svg_4"/>
  <path d="m59.52,62.87c-0.06,-0.02 -1.91,-0.53 -3.43,-0.53c-1.75,0 -2.71,0.59 -2.71,1.43c0,1.05 1.29,1.42 2.01,1.65l1.21,0.39c2.85,0.9 4.14,2.85 4.14,4.97c0,4.36 -3.83,5.83 -7.19,5.83c-2.33,0 -4.52,-0.43 -4.73,-0.48l0,-4c0.38,0.1 2.22,0.65 4.14,0.65c2.18,0 3.18,-0.64 3.18,-1.62c0,-0.88 -0.86,-1.39 -1.95,-1.73c-0.27,-0.09 -0.67,-0.22 -0.94,-0.3c-2.44,-0.78 -4.48,-2.21 -4.48,-5.09c0,-3.25 2.44,-5.43 6.48,-5.43c2.13,0 4.14,0.52 4.27,0.55l0,3.71l0,0z" fill="#ffffff" id="svg_5"/>
  <path d="m14.58,40.25c0,-1.2 -0.98,-2.17 -2.18,-2.17c-1.2,0 -2.18,0.97 -2.18,2.17l0,4.56c0,1.21 0.98,2.18 2.18,2.18c1.2,0 2.18,-0.97 2.18,-2.18l0,-4.56z" fill="#ffffff" id="svg_6"/>
  <path d="m26.54,34.26c0,-1.19 -0.98,-2.17 -2.18,-2.17c-1.2,0 -2.18,0.98 -2.18,2.17l0,10.55c0,1.21 0.98,2.18 2.18,2.18c1.2,0 2.18,-0.97 2.18,-2.18l0,-10.55z" fill="#ffffff" id="svg_7"/>
  <path d="m38.5,26.07c0,-1.2 -0.98,-2.17 -2.18,-2.17c-1.2,0 -2.18,0.97 -2.18,2.17l0,23.07c0,1.21 0.98,2.18 2.18,2.18c1.2,0 2.18,-0.97 2.18,-2.18l0,-23.07z" fill="#ffffff" id="svg_8"/>
  <path d="m50.45,34.26c0,-1.19 -0.98,-2.17 -2.18,-2.17c-1.2,0 -2.17,0.98 -2.17,2.17l0,10.55c0,1.21 0.97,2.18 2.17,2.18c1.2,0 2.18,-0.97 2.18,-2.18l0,-10.55z" fill="#ffffff" id="svg_9"/>
  <path d="m62.4,40.25c0,-1.2 -0.98,-2.17 -2.17,-2.17c-1.2,0 -2.18,0.97 -2.18,2.17l0,4.56c0,1.21 0.98,2.18 2.18,2.18c1.19,0 2.17,-0.97 2.17,-2.18l0,-4.56z" fill="#ffffff" id="svg_10"/>
  <path d="m74.36,34.26c0,-1.19 -0.97,-2.17 -2.17,-2.17c-1.2,0 -2.17,0.98 -2.17,2.17l0,10.55c0,1.21 0.97,2.18 2.17,2.18c1.2,0 2.17,-0.97 2.17,-2.18l0,-10.55z" fill="#ffffff" id="svg_11"/>
  <path d="m86.32,26.07c0,-1.2 -0.97,-2.17 -2.17,-2.17c-1.2,0 -2.17,0.97 -2.17,2.17l0,23.07c0,1.21 0.97,2.18 2.17,2.18c1.2,0 2.17,-0.97 2.17,-2.18l0,-23.07z" fill="#ffffff" id="svg_12"/>
  <path d="m98.29,34.26c0,-1.19 -0.97,-2.17 -2.2,-2.17c-1.2,0 -2.17,0.98 -2.17,2.17l0,10.55c0,1.21 0.97,2.18 2.17,2.18c1.23,0 2.2,-0.97 2.2,-2.18l0,-10.55z" fill="#ffffff" id="svg_13"/>
  <path d="m110.22,40.25c0,-1.2 -0.97,-2.17 -2.17,-2.17c-1.19,0 -2.17,0.97 -2.17,2.17l0,4.56c0,1.21 0.98,2.18 2.17,2.18c1.2,0 2.17,-0.97 2.17,-2.18l0,-4.56z" fill="#ffffff" id="svg_14"/>
 </g>
</svg>