<?xml version="1.0"?>
<svg width="40" height="40" xmlns="http://www.w3.org/2000/svg" xmlns:svg="http://www.w3.org/2000/svg">
 <g class="layer">
  <title>Layer 1</title>
  <path clip-rule="evenodd" d="m21.15,19.23c2.15,0 4.13,-3.54 4.13,-3.54c2.42,0 4.22,-3 4.22,-11.82l-4.3,0l0,2l-0.15,0.11c0,0 -3.05,-0.56 -5.05,-0.56c-2,0 -5.05,0.56 -5.05,0.56l-0.15,-0.11l0,-2l-4.3,0c0,8.82 1.8,11.82 4.22,11.82c0,0 1.98,3.54 4.13,3.54l0,1.29c0,0 0.18,0.66 0.18,1.37c0,2.45 -4.98,4.46 -4.98,5.58c0,1.13 0,4.79 0,4.79c0,0 -0.96,0.15 -0.96,1.33c0,1.19 3.19,2.54 6.91,2.54c3.72,0 6.91,-1.35 6.91,-2.54c0,-1.18 -0.96,-1.33 -0.96,-1.33c0,0 0,-3.66 0,-4.79c0,-1.12 -4.98,-3.13 -4.98,-5.58c0,-0.71 0.18,-1.37 0.18,-1.37l0,-1.29zm4.13,-12.25l0.02,0.01l0.48,-0.38l0.37,-0.28l0,-1.52l2.39,0c-0.1,6.42 -1.25,9.93 -3.26,9.93l0,-7.76zm-10.56,7.76c-2.01,0 -3.16,-3.51 -3.26,-9.93l2.39,0l0,1.52l0.37,0.28l0.14,0.11l0.34,0.27l0.02,-0.01l0,7.76z" fill="#ffffff" fill-rule="evenodd" id="svg_1"/>
 </g>
</svg>