<?xml version="1.0"?>
<svg width="120" height="100" xmlns="http://www.w3.org/2000/svg" xmlns:svg="http://www.w3.org/2000/svg">
 <g class="layer">
  <title>Layer 1</title>
  <path d="m10,73l5.2,0c3.04,0 4.62,1.44 4.62,3.82c0,2.6 -1.71,3.88 -5.1,3.88l-4.72,0l0,-7.7zm4.32,6.26c2.39,0 3.57,-0.52 3.57,-2.52c0,-1.6 -0.89,-2.35 -2.68,-2.35l-3.32,0l0,4.87l2.43,0z" fill="#ffffff" id="svg_1"/>
  <path d="m24.17,73l1.81,0l4.63,7.71l-2.11,0l-0.96,-1.7l-5.09,0l-0.96,1.7l-1.88,0l4.56,-7.71zm2.61,4.61l-1.8,-3.21l-1.74,3.21l3.54,0z" fill="#ffffff" id="svg_2"/>
  <path d="m31.74,73l1.89,0l0,3.11l4.5,-3.11l2.71,0l-5.32,3.57l5.92,4.14l-2.96,0l-4.85,-3.47l0,3.47l-1.89,0l0,-7.71z" fill="#ffffff" id="svg_3"/>
  <path d="m47.38,80.69l-1.87,0l0,-6.32l-3.71,0l0,-1.39l9.32,0l0,1.39l-3.74,0l0,6.32z" fill="#ffffff" id="svg_4"/>
  <path d="m52.52,73l6.93,0c1.24,0 1.81,0.42 1.81,1.5l0,1.82c0,1.06 -0.57,1.47 -1.81,1.47l-1.05,0l3.65,2.92l-2.7,0l-3.22,-2.92l-1.76,0l0,2.92l-1.86,0l0,-7.71l0.01,0zm1.86,1.32l0,2.14l4.28,0c0.57,0 0.86,-0.11 0.86,-0.63l0,-0.89c0,-0.51 -0.29,-0.62 -0.86,-0.62l-4.28,0z" fill="#ffffff" id="svg_5"/>
  <path d="m64.94,73l5.96,0c1.51,0 2,0.35 2,1.82l0,4.06c0,1.45 -0.49,1.82 -2,1.82l-5.96,0c-1.53,0 -2,-0.37 -2,-1.82l0,-4.06c0,-1.47 0.5,-1.82 2,-1.82zm6.08,6.22l0,-4.8l-6.21,0l0,4.8l6.21,0z" fill="#ffffff" id="svg_6"/>
  <path d="m74.62,73l1.29,0l6.54,5.11l0,-5.11l1.7,0l0,7.71l-1.29,0l-6.52,-5.2l0,5.2l-1.71,0l0,-7.71l-0.01,0z" fill="#ffffff" id="svg_7"/>
  <path d="m86.57,73l1.87,0l0,7.71l-1.87,0l0,-7.71z" fill="#ffffff" id="svg_8"/>
  <path d="m92.65,74.42l0,4.8l5.06,0l0,-1.64l1.89,0.38l0,0.92c0,1.44 -0.49,1.82 -2.03,1.82l-4.78,0c-1.54,0 -2,-0.41 -2,-1.82l0,-4.06c0,-1.44 0.47,-1.82 2,-1.82l4.81,0c1.52,0 2.02,0.36 2.02,1.82l0,0.75l-1.89,0.28l0,-1.42l-5.08,0l0,-0.01z" fill="#ffffff" id="svg_9"/>
  <path d="m103,74.39l0,1.62l5,0c1.53,0 2,0.36 2,1.82l0,1.06c0,1.44 -0.47,1.82 -2,1.82l-5,0c-1.53,0 -2.03,-0.39 -2.03,-1.82l0,-0.22l1.68,-0.31l0,0.92l5.67,0l0,-1.77l-4.99,0c-1.51,0 -2.03,-0.36 -2.03,-1.82l0,-0.86c0,-1.46 0.52,-1.82 2.03,-1.82l4.57,0c1.42,0 2.03,0.34 2.03,1.68l0,0.18l-1.62,0.35l0,-0.82l-5.31,0l0,-0.01z" fill="#ffffff" id="svg_10"/>
  <path d="m71.52,19.16l-46.16,0l0,11.54c6.38,0 11.54,5.17 11.54,11.54c0,6.38 -5.16,11.55 -11.54,11.55l0,11.54l46.16,0c12.75,0 23.07,-10.34 23.07,-23.07c0,-12.78 -10.33,-23.1 -23.07,-23.1zm-11.54,34.61c-6.38,0 -11.55,-5.17 -11.55,-11.54c0,-6.38 5.17,-11.54 11.55,-11.54c6.37,0 11.54,5.16 11.54,11.54c0,6.37 -5.17,11.54 -11.54,11.54z" fill="#ffffff" id="svg_11"/>
  <path d="m88.44,62.26c0,-1.74 1.42,-3.03 3.09,-3.03c1.65,0 3.06,1.28 3.06,3.03c0,1.76 -1.41,3.04 -3.06,3.04c-1.67,0.01 -3.09,-1.28 -3.09,-3.04zm3.09,2.54c1.37,0 2.45,-1.07 2.45,-2.54c0,-1.43 -1.08,-2.53 -2.45,-2.53c-1.39,0 -2.48,1.08 -2.48,2.53c0,1.47 1.09,2.54 2.48,2.54zm-0.64,-0.78l-0.53,0l0,-3.5l1.33,0c0.82,0 1.24,0.31 1.24,1c0,0.63 -0.39,0.91 -0.9,0.96l1,1.54l-0.6,0l-0.92,-1.51l-0.61,0l0,1.51l-0.01,0zm0.64,-1.96c0.45,0 0.84,-0.02 0.84,-0.57c0,-0.43 -0.39,-0.51 -0.76,-0.51l-0.72,0l0,1.08l0.64,0z" fill="#ffffff" id="svg_12"/>
 </g>
</svg>