<?xml version="1.0"?>
<svg width="120" height="100" xmlns="http://www.w3.org/2000/svg" xmlns:svg="http://www.w3.org/2000/svg">
 <g class="layer">
  <title>Layer 1</title>
  <path d="m65.43,56.85l-2.19,0l0,2.71l2.19,0c0.19,0 0.35,-0.07 0.47,-0.21c0.12,-0.15 0.18,-0.33 0.18,-0.56l0,-1.16c0,-0.23 -0.05,-0.41 -0.18,-0.56c-0.12,-0.15 -0.28,-0.22 -0.47,-0.22z" fill="#ffffff" id="svg_1"/>
  <path d="m57.19,56.85l-1.6,0c-0.21,0 -0.37,0.07 -0.5,0.22c-0.12,0.15 -0.18,0.33 -0.18,0.56l0,4.84c0,0.22 0.06,0.41 0.18,0.55c0.13,0.16 0.29,0.24 0.5,0.24l1.6,0c0.19,0 0.36,-0.08 0.48,-0.24c0.13,-0.14 0.19,-0.33 0.19,-0.55l0,-4.84c0,-0.23 -0.06,-0.41 -0.19,-0.56c-0.12,-0.15 -0.29,-0.22 -0.48,-0.22z" fill="#ffffff" id="svg_2"/>
  <path d="m49.18,56.85l-2.28,0l0,2.93l2.28,0c0.19,0 0.36,-0.07 0.48,-0.22c0.12,-0.14 0.19,-0.33 0.19,-0.55l0,-1.38c0,-0.23 -0.07,-0.41 -0.19,-0.56c-0.12,-0.15 -0.29,-0.22 -0.48,-0.22z" fill="#ffffff" id="svg_3"/>
  <path d="m60,15c-19.33,0 -35,15.67 -35,35c0,19.33 15.67,35 35,35c19.33,0 35,-15.67 35,-35c0,-19.33 -15.67,-35 -35,-35zm-13.08,16.2l17.99,0l-2.76,4.36l-17.98,0.01l2.75,-4.37zm-3.65,31.56c0,0.56 -0.19,1.04 -0.58,1.43c-0.39,0.39 -0.87,0.59 -1.42,0.59l-2.37,0c-0.57,0 -1.04,-0.19 -1.41,-0.57c-0.38,-0.37 -0.57,-0.84 -0.57,-1.41l0,-0.94l1.46,0l0.21,0.87c0.1,0.36 0.35,0.54 0.75,0.54l1.61,0c0.2,0 0.36,-0.07 0.49,-0.22c0.12,-0.15 0.18,-0.34 0.18,-0.55l0,-1.04c0,-0.51 -0.23,-0.76 -0.67,-0.76l-2.02,0c-0.55,0 -1.03,-0.2 -1.43,-0.59c-0.38,-0.39 -0.58,-0.87 -0.58,-1.43l0,-1.36c0,-0.55 0.2,-1.02 0.58,-1.41c0.4,-0.39 0.88,-0.59 1.43,-0.59l2.34,0c0.55,0 1.02,0.19 1.41,0.57c0.38,0.38 0.56,0.84 0.56,1.41l0,0.84l-1.44,0l-0.22,-0.77c-0.12,-0.36 -0.37,-0.54 -0.74,-0.54l-1.58,0c-0.21,0 -0.37,0.07 -0.49,0.22c-0.13,0.15 -0.19,0.33 -0.19,0.56l0,0.8c0,0.49 0.22,0.74 0.68,0.74l2.01,0c0.55,0 1.02,0.2 1.41,0.6c0.4,0.4 0.59,0.87 0.59,1.41l0,1.6zm8.25,-3.46c0,0.55 -0.2,1.03 -0.58,1.42c-0.4,0.39 -0.88,0.59 -1.44,0.59l-2.6,0l0,3.47l-1.67,0l0,-9.46l4.27,0c0.56,0 1.04,0.2 1.44,0.59c0.38,0.39 0.58,0.86 0.58,1.4l0,1.99zm8.01,3.45c0,0.57 -0.19,1.05 -0.59,1.44c-0.4,0.39 -0.86,0.59 -1.43,0.59l-2.25,0c-0.57,0 -1.04,-0.2 -1.44,-0.59c-0.39,-0.39 -0.59,-0.87 -0.59,-1.44l0,-5.44c0,-0.54 0.2,-1.01 0.59,-1.4c0.4,-0.39 0.87,-0.59 1.44,-0.59l2.25,0c0.57,0 1.03,0.2 1.43,0.59c0.4,0.38 0.59,0.86 0.59,1.4l0,5.44zm0.42,-9.68l-22.79,0.01l5.54,-8.76l-4.06,0l2.76,-4.37l16.95,0l-2.77,4.37l-7.6,0l-2.8,4.38l12.23,0l11.18,-17.65l13.92,22.02l-5.25,0l-2.77,-4.37l-8.23,0l2.77,-4.38l2.7,0l-3.14,-4.98l-8.64,13.73zm6.41,11.71l-1.54,-3.7l-1.58,0l0,3.7l-1.67,0l0,-9.46l4.18,0c0.56,0 1.03,0.2 1.42,0.59c0.39,0.39 0.59,0.86 0.59,1.4l0,1.65c0,0.43 -0.12,0.82 -0.36,1.17c-0.24,0.34 -0.55,0.58 -0.92,0.74l1.66,3.91l-1.78,0zm8.95,-7.93l-2.42,0l0,7.93l-1.68,0l0,-7.93l-2.4,0l0,0l0,-1.53l6.5,0l0,1.53zm7.58,5.91c0,0.56 -0.19,1.04 -0.58,1.43c-0.4,0.39 -0.87,0.59 -1.43,0.59l-2.37,0c-0.57,0 -1.03,-0.19 -1.41,-0.57c-0.38,-0.37 -0.57,-0.84 -0.57,-1.41l0,-0.94l1.45,0l0.22,0.87c0.11,0.36 0.35,0.54 0.75,0.54l1.6,0c0.21,0 0.37,-0.07 0.5,-0.22c0.12,-0.15 0.18,-0.34 0.18,-0.55l0,-1.04c0,-0.51 -0.22,-0.76 -0.68,-0.76l-2.01,0c-0.56,0 -1.03,-0.2 -1.42,-0.59c-0.39,-0.39 -0.59,-0.87 -0.59,-1.43l0,-1.36c0,-0.55 0.2,-1.02 0.59,-1.41c0.39,-0.39 0.86,-0.59 1.42,-0.59l2.34,0c0.56,0 1.02,0.19 1.41,0.57c0.38,0.38 0.57,0.84 0.57,1.41l0,0.84l-1.45,0l-0.22,-0.77c-0.12,-0.36 -0.37,-0.54 -0.74,-0.54l-1.59,0c-0.2,0 -0.37,0.07 -0.49,0.22c-0.12,0.15 -0.18,0.33 -0.18,0.56l0,0.8c0,0.49 0.23,0.74 0.67,0.74l2.02,0c0.55,0 1.02,0.2 1.41,0.6c0.4,0.4 0.6,0.87 0.6,1.41l0,1.6zm1.02,-6.97l-0.36,0l0,0.76l-0.18,0l0,-0.76l-0.35,0l0,-0.16l0,0l0.89,0l0,0.16zm1.06,0.76l0,-0.57c0,-0.02 0,-0.05 0.01,-0.1c-0.02,0.04 -0.02,0.07 -0.05,0.1l-0.29,0.45l-0.02,0l-0.3,-0.45c-0.02,-0.03 -0.04,-0.06 -0.06,-0.1c0,0.04 0.02,0.07 0.02,0.1l0,0.57l-0.15,0l0,-0.92l0.15,0l0.36,0.56l0.36,-0.56l0.14,0l0,0.92l-0.17,0z" fill="#ffffff" id="svg_4"/>
 </g>
</svg>