<?xml version="1.0"?>
<svg width="121" height="100" xmlns="http://www.w3.org/2000/svg" xmlns:svg="http://www.w3.org/2000/svg">
 <defs>
  <clipPath id="clip0_4739_15130">
   <rect fill="white" height="100" id="svg_1" transform="translate(0.800049)" width="120"/>
  </clipPath>
  <clipPath id="clip1_4739_15130">
   <rect fill="white" height="90.67" id="svg_2" transform="translate(0.800049 5)" width="120"/>
  </clipPath>
 </defs>
 <g class="layer">
  <title>Layer 1</title>
  <g clip-path="url(#clip0_4739_15130)" id="svg_3">
   <g clip-path="url(#clip1_4739_15130)" id="svg_4">
    <path d="m93.96,73.37c0.63,-1.16 1.12,-4.11 -1.02,-3.95c-2.49,0.19 -2.02,6.81 -2.02,6.81c0.83,-0.91 2.08,-1.09 3.04,-2.86z" fill="#ffffff" id="svg_5"/>
    <path d="m69.57,79.24c0,0.92 0.62,1.82 1.48,1.82c1.54,0 1.9,-0.5 2.24,-0.81l0,-6.04c-0.79,0.96 -3.72,1.46 -3.72,5.03z" fill="#ffffff" id="svg_6"/>
    <path d="m76.04,42.85c1.69,1.36 2.49,-0.1 1.35,-1.65c-0.44,-0.61 -2.18,-0.44 -2.69,0.1c0,0 0.91,1.21 1.34,1.55z" fill="#ffffff" id="svg_7"/>
    <path d="m61.42,35.11c-0.82,-1.44 -3.43,-4.11 -3.43,-4.11c0,0 -4.55,4.69 -4.7,4.85c-0.73,0.75 -0.85,0.94 -1.53,1.35l8.27,0c2.23,0 1.79,-1.39 1.39,-2.09z" fill="#ffffff" id="svg_8"/>
    <path d="m0.8,5l0,90.67l120,0l0,-90.67l-120,0zm64.56,31.09c0.01,-0.36 0,-10.44 0,-10.86c0,-1.76 0.94,-3.17 1.2,-3.45c0.34,-0.35 3.89,-3.55 4.13,-3.8l0.99,0.03c-0.22,0.24 -1.49,1.3 -1.87,1.73c-0.38,0.42 -1.11,1.29 -1.11,2.85c0,0.43 -0.01,9.97 -0.01,10.44c0,1.98 -1.04,3.24 -1.48,3.74c-0.33,0.38 -3.55,3.23 -3.86,3.53l-0.95,-0.02c0.15,-0.16 1.82,-1.68 2.09,-1.95c0.39,-0.38 0.86,-1.47 0.87,-2.24zm-16.96,-0.04c0.38,0.44 0.76,0.95 1.68,0.94c0.72,-0.01 1.48,-0.58 1.69,-0.78c0.21,-0.22 5.55,-5.8 5.55,-5.8c0,0 -2.5,-2.32 -4.15,-3.42c-0.81,-0.54 -1.87,0.14 -2.03,0.85c-0.51,2.22 0,5.55 0,5.55c0,0 -1.64,-1.63 -2.03,-2.02c-0.82,-0.82 -0.79,-2.67 0.18,-3.64c0.16,-0.16 1.64,-1.83 3.52,-1.83l2.93,0c1.97,0 4.12,1.96 4.12,1.96c0,0 0.31,-0.35 0.31,-0.68c0,-1.01 -0.04,-3.73 -0.04,-3.73c-1.48,-1.48 -1.68,-3 -0.97,-3.71c1.32,-1.32 1.81,-1.79 1.81,-1.79c0,0 -0.02,1.61 1.53,3.15c0.53,0.53 1.67,1.97 0.98,2.65c-0.6,0.61 -1.54,1.57 -1.54,1.57c-0.05,-0.35 -0.93,-1.18 -0.93,-1.18c0,0 0.01,2.55 0,2.87c-0.02,1.15 -0.46,1.48 -0.46,1.48c0,0 2.13,2.11 2.13,4.82c0,1.32 0.01,2.53 0.01,2.79c0,0.56 -0.14,0.99 -0.53,1.41c-0.19,0.22 -2.17,2.2 -2.47,2.47c-0.57,0.51 -1.17,0.6 -1.62,0.6l-7.34,0c-1.16,0 -2.35,-0.9 -2.35,-1.8c0,-0.23 0.02,-2.73 0.02,-2.73zm-2.89,-4.46c0.16,0.07 1.01,0.41 1.01,3.69c0,0 -0.06,3.81 -0.06,4.01c0,1.66 1.32,3.56 3.23,3.56c0.39,0 15.65,-0.01 15.65,-0.01c0.02,-0.42 0.44,-2.02 1.19,-2.86c0.43,-0.48 3.79,-3.55 4.17,-3.85l0.99,-0.01c-0.14,0.14 -1.77,1.59 -2.13,1.98c-0.44,0.46 -0.86,1.6 -0.86,2.6l0,2.14l2.17,0c0.84,0 1.95,-0.77 2.19,-1.18c0.02,-0.03 0,-2.12 0,-2.12c0,0 0.56,0.8 1.16,1.22c0.23,-0.28 2.2,-2.68 3.85,-2.69c2.76,-0.02 2.14,3.46 1.01,4.57c-0.37,0.36 -1.99,1.85 -2.5,2.33c-1.3,1.24 -3.53,0.65 -3.53,-2.55c0,0 -2.4,2.27 -2.75,2.57c-0.37,0.3 -1.6,1.61 -1.6,1.61l0,5.63c0,2.7 -0.89,3.61 -1.63,4.42c-0.28,0.31 -3.32,3.09 -3.73,3.39l-0.99,0.02c0,0 1.78,-1.62 2.13,-1.99c0.41,-0.42 0.88,-1.27 0.88,-2.7c0,-0.36 -0.05,-8.85 -0.05,-8.85l-13.83,0c-4.81,0 -5.84,-5.34 -5.87,-6.77c-0.01,-0.42 0,-4.68 0,-5.34c0,-0.88 -0.56,-2.36 -1.46,-2.82l1.36,0zm27.3,20.18c-0.25,-0.27 -1.51,-1.57 -1.51,-1.57l0,-4.33c0,0 1.15,1.08 1.33,1.26c0.33,0.33 1.52,1.44 1.52,3.33l0,5.65c0,2.03 -0.6,4.21 -2.22,5.83c-1.62,1.61 -4.07,2.76 -6.75,2.76l-2.64,0l-3.94,-3.44l6.62,0c2.55,0 4.4,-1.75 5.05,-2.38c3.7,-3.61 3.71,-5.87 2.54,-7.11zm-14.9,-0.38c0,0.76 -2.41,2.76 -2.55,2.91c-0.18,-0.82 -0.79,-1.72 -2.59,-3.52l2.64,-2.64c1.78,1.77 2.5,2.15 2.5,3.25zm-5.4,0.01c0,0.76 -2.41,2.77 -2.56,2.91c-0.17,-0.82 -0.78,-1.72 -2.58,-3.52l2.64,-2.64c1.77,1.77 2.5,2.15 2.5,3.25zm-8.65,-8.03c0,0 1.01,0 1.01,3.69l0,3.58c0,4.36 3.93,6.95 6.83,6.88c0.48,-0.01 7.55,-0.02 7.89,-0.02c1.73,0 3.22,-2.55 1.35,-4.03c-0.4,-0.31 -1.3,-1.27 -1.3,-1.27l0,-4.43c0,0 0.92,0.88 1.25,1.21c0.52,0.53 1.61,1.3 1.61,3.17l0,2.16c0,2.21 -0.8,2.89 -1.56,3.73c-0.22,0.25 -0.85,0.95 -1.32,1.38c-1.31,1.15 -2.06,1.68 -4.22,1.68l-3.6,0c-4.3,0 -7.84,-3.97 -7.84,-8.26l0,-6.6c0,-2.07 -1.46,-2.87 -1.46,-2.87l1.36,0zm11.59,22.09c0,0.96 -0.79,1.73 -1.76,1.73c-0.98,0 -1.77,-0.77 -1.77,-1.73c0,-0.95 0.79,-1.73 1.77,-1.73c0.97,0 1.76,0.78 1.76,1.73zm-27.27,15.01c0,0.79 -0.71,2.24 -2.75,2.24l-4.43,0l-1.44,0l-3.11,0c0,0 -1.11,-0.07 -1.11,-2.85l-0.05,-11.05c0.05,-2.76 -1.54,-4.11 -1.54,-4.11l9.12,0c4.67,0 5.04,3.2 5.04,3.2c-1.94,-1.3 -3.81,-1.26 -6.23,-1.26c-0.18,0 -2.79,-0.01 -2.79,-0.01c0.41,0.5 0.41,2.19 0.41,2.19l0,0.75l0,1.2l1.97,0c3.03,0 4.05,2.46 4.05,2.46c-1.41,-0.81 -2.87,-0.63 -4.04,-0.63c-1.05,0 -1.98,0.02 -1.98,0.02l0,6.07c0.12,0.94 0.02,2.05 1.35,2.05c0.48,0 3.8,0 4.23,0c2.68,0 3.33,-1.33 3.33,-1.33l-0.03,1.06zm18.28,2.21c0,0 -1.11,0.03 -1.13,-2.87c0,-0.6 0,-7.06 0,-7.06c0.03,-1.08 -0.93,-2.04 -2.07,-2.04c-1.44,0 -1.94,1.03 -2.08,1.46l0.01,7.61c0,1.89 1.46,2.91 1.46,2.91l-3.8,0c0,0 -1.13,-0.01 -1.13,-2.88l0,-7.08c0.02,-1.08 -0.99,-2.05 -1.92,-2.05c-1.63,0 -2.2,1.15 -2.25,1.49l0,7.61c0,1.84 1.35,2.86 1.45,2.91l-3.79,0c0,0 -1.14,-0.05 -1.14,-2.88l0,-8.59c0,-2.32 -1.33,-2.86 -1.33,-2.86l2.3,-0.01c2.35,0 2.41,2.69 2.41,2.69c0,0 0.74,-2.78 3.66,-2.78c1.55,0 3.43,0.85 3.97,2.73c0.31,-0.69 1.03,-2.71 3.45,-2.71c1.83,0 4.28,0.8 4.28,3.8l0,7.73c0,1.88 1.45,2.88 1.45,2.88c0,0 -1.82,-0.01 -3.8,-0.01zm6.66,0c0,0 -1.16,0.02 -1.16,-2.85l0,-0.02l0,-8.6c0,-2.28 -1.31,-2.86 -1.31,-2.86l2.29,0c0.81,0 2.5,0 2.5,3.21l-0.01,8.23l0.02,0.02c0,1.9 1.45,2.88 1.45,2.88c0,0 -1.8,-0.01 -3.78,-0.01zm10.58,0.01l-3.78,0c0,0 -1.15,-0.05 -1.15,-2.89l0.01,-8.59c0,-2.32 -1.33,-2.87 -1.33,-2.87l2.29,0c1.68,0 2.28,0.66 2.47,2.89c0,0 0.58,-2.83 2.96,-2.83c1.57,0 1.94,1.03 1.94,1.03l0,0l0,2.44c-0.97,-1.19 -2.68,-1.39 -3.93,-0.58c-0.5,0.32 -0.83,0.82 -0.93,1.45l0,7.04c0,1.84 1.35,2.86 1.45,2.91zm10.71,-0.01c0,0 -0.8,-0.09 -1.06,-1.69c-0.43,0.83 -1.46,1.73 -3.17,1.73c-1.76,0 -3.16,-0.62 -3.57,-2.72c-1.06,-5.3 5.8,-5.62 6.68,-7.17c0.48,-0.84 0.28,-1.48 0.28,-1.49c0.01,-0.48 -0.13,-1.44 -2.06,-1.44c-1.97,0 -2.75,1.98 -2.75,1.98l0,-2.5c0,0 1.37,-1.05 3.56,-1.05c2.27,0 4.4,1.5 4.4,3.43l0,8.06c0,1.89 1.48,2.87 1.48,2.87c0,0 -1.81,-0.01 -3.79,-0.01zm12.6,-12.17c0,0 -0.95,-0.56 -2.24,-0.56c-0.62,0 0.07,0 -0.93,0l-0.01,9.94c0,1.82 1.47,2.8 1.47,2.8c0,0 -1.71,-0.01 -3.78,-0.01c0,0 -1.16,0 -1.16,-2.76l0,-9.98l-2.4,-0.04c0,0 2.26,-1.09 3.33,-1.98c1.72,-1.4 2.55,-2.85 2.55,-2.85l0,3.28l3.18,0l-0.01,2.16zm6.05,10.26c0.58,0.27 2.92,1.11 4.43,-1.5l-0.01,2.31c0,0 -0.97,1.13 -4.06,1.13c-3.72,0 -6.27,-2.93 -6.27,-6.89c0,-3.9 2.08,-7.52 6,-7.54c3.85,-0.02 5.92,3.08 3.13,6c-2.12,2.23 -3.79,1.88 -5.12,3.51c0,0 0.21,2.2 1.9,2.98zm9.64,1.93c-2.19,0 -3.61,-1.02 -3.61,-1.02l0,-2.56c0,0 0.79,2.02 2.76,2.02c1.93,0 2.84,-1.33 2.82,-2.34c-0.02,-0.73 -0.42,-1.47 -1.52,-2.08c-0.76,-0.42 -1.41,-0.82 -1.96,-1.23c-1.38,-1.03 -2.09,-2.13 -2.13,-3.82c-0.04,-1.92 2.02,-3.42 4.3,-3.42c2.18,0 3.62,1.14 3.62,1.14l0,2.4c0,0 -0.8,-1.98 -2.68,-1.98c-1.93,0 -2.16,0.97 -2.14,1.45c0.01,0.27 0.39,1.04 1.09,1.48c1.23,0.76 2.83,1.58 3.71,2.75c0.52,0.71 0.87,1.53 0.88,2.5c0.07,2.74 -2.55,4.71 -5.14,4.71z" fill="#ffffff" id="svg_9"/>
   </g>
  </g>
 </g>
</svg>