<?xml version="1.0"?>
<svg width="120" height="100" xmlns="http://www.w3.org/2000/svg" xmlns:svg="http://www.w3.org/2000/svg">
 <g class="layer">
  <title>Layer 1</title>
  <path d="m60,80c-0.3,0 -0.6,0 -0.9,0l6.1,-16.8l8.4,0c1.5,0 3.1,-1.2 3.6,-2.5l6.7,-18.3c1.1,-3 -0.6,-5.4 -3.8,-5.4l-11.7,0l-9.8,27l-5.6,15.3c-13.2,-3.3 -23,-15.1 -23,-29.3c0,-13.8 9.2,-25.3 21.9,-28.9l-5.8,15.8l-9.6,26.3l6.5,0l8.1,-22.3l4.8,0l-8.1,22.3l6.4,0l7.6,-20.8c1.1,-3 -0.6,-5.4 -3.8,-5.4l-5.3,0l6,-17c0.4,0 0.9,0 1.3,0c16.6,0 30,13.4 30,30c0,16.6 -13.4,30 -30,30zm18.2,-39.2l-4.8,0l-6.7,18.4l4.8,0l6.7,-18.4z" fill="#ffffff" id="svg_1"/>
 </g>
</svg>