<?xml version="1.0"?>
<svg width="40" height="40" xmlns="http://www.w3.org/2000/svg" xmlns:svg="http://www.w3.org/2000/svg">
 <g class="layer">
  <title>Layer 1</title>
  <path clip-rule="evenodd" d="m26.33,5.46c-0.05,-0.23 -0.09,-0.42 -0.14,-0.6c-0.57,-0.03 -1.11,-0.05 -1.65,-0.08c-1.52,0 -7.57,0 -9.08,0c-0.54,0.03 -1.08,0.05 -1.65,0.08c-0.05,0.18 -0.09,0.37 -0.15,0.6c-1.71,0 -3.43,0 -5.16,0c0.2,0.69 0.41,1.33 0.58,1.99c0.44,1.73 0.81,3.49 1.29,5.21c0.83,2.93 2.67,5.16 4.89,7.1c0.62,0.53 1.29,0.99 1.96,1.46c0.22,0.15 0.35,0.29 0.32,0.57c-0.02,0.22 0.02,0.46 -0.01,0.68c-0.05,0.42 0.05,0.7 0.56,0.69c-0.35,1.07 -0.93,1.84 -2,2.15c-0.56,0.16 -1.11,0.35 -1.66,0.55c-0.7,0.25 -1.06,0.76 -1.08,1.5c-0.05,1.28 -0.1,2.56 -0.14,3.85c-0.01,0.26 0.03,0.53 -0.27,0.7c-0.09,0.05 -0.1,0.25 -0.16,0.4c-0.3,0.05 -0.61,0.12 -0.93,0.14c-0.33,0.01 -0.55,0.1 -0.46,0.5c-0.18,0.06 -0.34,0.11 -0.52,0.17c0,0.32 0,0.64 0,1.03c0.93,0.18 3.81,1.07 9.13,1.07c5.32,0 8.2,-0.89 9.13,-1.07c0,-0.39 0,-0.71 0,-1.03c-0.18,-0.06 -0.34,-0.11 -0.52,-0.17c0.09,-0.4 -0.13,-0.49 -0.46,-0.5c-0.32,-0.02 -0.63,-0.09 -0.94,-0.14c-0.05,-0.15 -0.06,-0.35 -0.15,-0.4c-0.3,-0.17 -0.26,-0.44 -0.27,-0.7c-0.05,-1.29 -0.09,-2.57 -0.14,-3.85c-0.03,-0.74 -0.38,-1.25 -1.08,-1.5c-0.55,-0.2 -1.1,-0.39 -1.66,-0.55c-1.07,-0.31 -1.65,-1.08 -2,-2.15c0.51,0.01 0.61,-0.27 0.56,-0.69c-0.03,-0.22 0.01,-0.46 -0.01,-0.68c-0.03,-0.28 0.1,-0.42 0.32,-0.57c0.67,-0.47 1.34,-0.93 1.96,-1.46c2.22,-1.94 4.06,-4.17 4.89,-7.1c0.48,-1.72 0.85,-3.48 1.29,-5.21c0.17,-0.66 0.38,-1.3 0.58,-1.99c-1.73,0 -3.45,0 -5.17,0zm-8.8,15.24c-0.33,-0.21 -0.6,-0.33 -0.81,-0.52c-1.97,-1.8 -3.5,-3.93 -4.38,-6.48c-0.7,-2.01 -1.35,-4.05 -1.41,-6.22c0,-0.08 0,-0.16 0,-0.29c0.89,0 1.73,0 2.63,0c0,0.22 0.02,0.41 0,0.6c-0.14,1.2 0.12,2.36 0.33,3.52c0.16,0.86 0.66,1.56 1.19,2.23c0.94,1.19 1.65,2.5 1.99,4c0.11,0.47 0.14,0.96 0.21,1.44c0.06,0.4 -0.07,0.84 0.24,1.21c0.07,0.07 0.01,0.26 0.01,0.51zm11.54,-13.22c-0.06,2.17 -0.71,4.21 -1.41,6.22c-0.88,2.55 -2.41,4.68 -4.38,6.48c-0.21,0.19 -0.48,0.31 -0.81,0.52c0,-0.25 -0.06,-0.44 0.01,-0.51c0.31,-0.37 0.18,-0.81 0.24,-1.21c0.07,-0.48 0.1,-0.97 0.21,-1.44c0.34,-1.5 1.05,-2.81 1.99,-4c0.53,-0.67 1.03,-1.37 1.19,-2.23c0.21,-1.16 0.47,-2.32 0.33,-3.52c-0.02,-0.19 0,-0.38 0,-0.6c0.89,0 1.74,0 2.63,0c0,0.13 0,0.21 0,0.29z" fill="#ffffff" fill-rule="evenodd" id="svg_1"/>
 </g>
</svg>