<?xml version="1.0"?>
<svg width="120" height="100" xmlns="http://www.w3.org/2000/svg" xmlns:svg="http://www.w3.org/2000/svg">
 <g class="layer">
  <title>Layer 1</title>
  <path d="m119.77,44l-1.54,0l-0.23,0.23l0,7.3l-7.77,-7.76l-0.23,0.23l0,11.77l0.23,0.23l1.54,0l0.23,-0.23l0,-7.4l7.63,7.63l0.37,0l0,-11.77l-0.23,-0.23z" fill="#ffffff" id="svg_1"/>
  <path d="m81.33,44.23l0,1.77l2,0l0,10l2,0l0,-10l1.77,0l0.23,-0.23l0,-1.77l-5.76,0l-0.24,0.23z" fill="#ffffff" id="svg_2"/>
  <path d="m88.67,44.23l0,1.77l2,0l0,10l2,0l0,-10l1.76,0l0.24,-0.23l0,-1.77l-5.77,0l-0.23,0.23z" fill="#ffffff" id="svg_3"/>
  <path d="m2,44l-1.77,0l-0.23,0.23l0,11.77l6,0l0,-2l-4,0l0,-10z" fill="#ffffff" id="svg_4"/>
  <path d="m13.33,44c-3.31,0 -6,2.69 -6,6c0,3.31 2.69,6 6,6c3.31,0 6,-2.69 6,-6c0,-3.31 -2.69,-6 -6,-6zm0,10c-2.21,0 -4,-1.79 -4,-4c0,-2.21 1.79,-4 4,-4c2.21,0 4,1.79 4,4c0,2.21 -1.79,4 -4,4z" fill="#ffffff" id="svg_5"/>
  <path d="m102,44c-3.31,0 -6,2.69 -6,6c0,3.31 2.69,6 6,6c3.31,0 6,-2.69 6,-6c0,-3.31 -2.69,-6 -6,-6zm0,10c-2.21,0 -4,-1.79 -4,-4c0,-2.21 1.79,-4 4,-4c2.21,0 4,1.79 4,4c0,2.21 -1.79,4 -4,4z" fill="#ffffff" id="svg_6"/>
  <path d="m28.23,44l-0.23,0.23l0,7.77c0,1.1 -0.9,2 -2,2c-1.1,0 -2,-0.9 -2,-2l0,-7.77l-0.23,-0.23l-1.53,0l-0.23,0.23l0,7.77c0,2.21 1.79,4 4,4c2.21,0 4,-1.79 4,-4l0,-7.77l-0.23,-0.23l-1.53,0l-0.02,0z" fill="#ffffff" id="svg_7"/>
  <path d="m34,44.23l0,11.77l1.77,0l0.23,-0.23l0,-11.77l-1.77,0l-0.23,0.23z" fill="#ffffff" id="svg_8"/>
  <path d="m70.23,44l-0.23,0.23l0,7.77c0,1.1 -0.9,2 -2,2c-1.1,0 -2,-0.9 -2,-2l0,-7.77l-0.23,-0.23l-1.53,0l-0.23,0.23l0,7.77c0,2.21 1.79,4 4,4c2.21,0 4,-1.79 4,-4l0,-7.77l-0.23,-0.23l-1.53,0l-0.02,0z" fill="#ffffff" id="svg_9"/>
  <path d="m76,44.23l0,11.77l1.77,0l0.23,-0.23l0,-11.77l-1.77,0l-0.23,0.23z" fill="#ffffff" id="svg_10"/>
  <path d="m43.5,49.08c-0.65,-0.36 -0.85,-0.49 -1.33,-0.8c-0.45,-0.29 -0.7,-0.63 -0.67,-1.17c0.04,-0.72 0.68,-1.28 1.37,-1.28c0.58,0 1.11,0.32 1.35,0.83l0.37,0l1.17,-1.17c-0.61,-0.89 -1.72,-1.5 -2.88,-1.5c-1.16,0 -1.87,0.38 -2.4,0.87c-0.69,0.63 -1.12,1.53 -1.12,2.47c0,1.25 0.7,2.3 1.37,2.68c0.65,0.38 2.13,1.2 2.13,1.2c0.82,0.39 0.95,1.16 0.85,1.67c-0.13,0.65 -0.79,1.3 -1.78,1.17c-0.49,-0.07 -1,-0.43 -1.23,-0.62l-0.52,-0.43l-1.5,1.53c0.69,0.81 1.33,1.21 2.38,1.47c0.37,0.09 0.87,0.12 1.15,0.12c2.15,0 3.82,-1.86 3.82,-3.85c0,-1.99 -1.8,-2.79 -2.52,-3.18l-0.01,-0.01z" fill="#ffffff" id="svg_11"/>
  <path d="m56.8,51.32l-3.03,-7.32l-2.17,0l4.97,12l0.23,0.23l0.23,-0.23l4.97,-12l-2.17,0l-3.03,7.32z" fill="#ffffff" id="svg_12"/>
 </g>
</svg>