<?xml version="1.0"?>
<svg width="40" height="40" xmlns="http://www.w3.org/2000/svg" xmlns:svg="http://www.w3.org/2000/svg">
 <g class="layer">
  <title>Layer 1</title>
  <path clip-rule="evenodd" d="m20,35.88c-3.31,0 -6,-0.66 -6,-1.13c0,-0.03 0.01,-0.06 0.04,-0.09l1.75,-4.46c0,-0.1 0.18,-0.19 0.48,-0.27c0.75,-1.76 4.72,-12.24 -1.75,-22.31l0.44,-0.45c0,0 0.49,0.65 1.12,1.87c-0.06,-0.27 -0.09,-0.55 -0.09,-0.84c0,-2.25 1.8,-4.08 4,-4.08c2.01,0 3.68,1.52 3.96,3.49l0.02,0.02c0.06,-0.12 0.09,-0.18 0.09,-0.18l0.6,-0.61c0.54,0.29 0.74,0.76 0.74,0.76c-6.78,10.92 -2.36,20.57 -1.39,22.42c0.13,0.06 0.2,0.12 0.2,0.18l1.75,4.46c0.03,0.03 0.04,0.06 0.04,0.09c0,0.47 -2.69,1.13 -6,1.13zm-0.23,-23.6c-1.19,-0.07 -2.23,-0.66 -2.92,-1.56c1.55,3.83 3.07,10.53 0.11,19.08c0.55,-0.08 1.26,-0.14 2.05,-0.17c0.35,-2.18 0.97,-7.53 0.76,-17.35z" fill="#ffffff" fill-rule="evenodd" id="svg_1"/>
 </g>
</svg>