<?xml version="1.0"?>
<svg width="120" height="100" xmlns="http://www.w3.org/2000/svg" xmlns:svg="http://www.w3.org/2000/svg">
 <g class="layer">
  <title>Layer 1</title>
  <path d="m80.55,47.82l3.06,0l-1.5,-3.56l-1.56,3.56z" fill="#ffffff" id="svg_1"/>
  <path d="m59.89,14.89c-19.33,0 -35,15.67 -35,35.01c0,19.33 15.67,34.99 35,34.99c19.34,0 35,-15.66 35,-34.99c0,-19.34 -15.66,-35.01 -35,-35.01zm-4.04,24.47l3,6.61l2.87,-6.61l3.32,0c-2.07,4.33 -4.13,8.9 -6.19,12.91c-2.13,-4.01 -4.25,-8.59 -6.37,-12.91l3.37,0zm-7.77,0l3,0l0,12.21l-3,0l0,-12.21zm-11.58,12.21l-3,0l0,-12.91c2.68,2.36 5.31,4.71 7.93,7.06l0,-6.36l3,0l0,12.91c-2.75,-2.35 -5.43,-4.83 -7.93,-7.06l0,6.36zm16.32,14.72l0,0l-2.03,0l0,-7.88l-3.41,7.88l-1.51,0l-3.4,-7.88l0,7.88l-1.94,0l0,-10.35l2.83,0l3.31,7.7l3.33,-7.7l2.82,0l0,10.35zm12.67,-8.58l-7.45,0l0,2.36l6.28,0l0,1.77l-6.28,0l0,2.69l7.45,-0.01l0,1.78l-9.41,0l0,-10.36l9.41,0l0,1.77zm0.94,-18.35l8.08,0l0,2.67l-5.08,0l0,2.1l5.08,0l0,2.67l-5.08,0l0,2.1l5.08,0l0,2.67l-8.08,0l0,-12.21zm12.82,26.93l-1.86,0l-7.21,-7.69l0,7.69l-1.96,0l0,-10.35l2.05,0l7.02,7.45l0,-7.45l1.96,0l0,10.35zm5.3,-16.18l-4.87,0l-0.63,1.46l-3.12,0c2.06,-4.45 4.12,-8.84 6.18,-12.91c2.06,4.01 4.19,8.46 6.31,12.91l-3.25,0l-0.62,-1.46z" fill="#ffffff" id="svg_2"/>
 </g>
</svg>