<?xml version="1.0"?>
<svg width="40" height="40" xmlns="http://www.w3.org/2000/svg" xmlns:svg="http://www.w3.org/2000/svg">
 <g class="layer">
  <title>Layer 1</title>
  <path d="m22.73,29.11c0,0 -0.67,-1.24 -0.67,-2.57c0,-1.32 0.78,-2.46 0.78,-2.46c0,0 4.76,-3.74 4.76,-10.45c0,-4.97 -1.75,-7.2 -1.75,-7.2l0,-1.98l-11.7,0l0,1.98c0,0 -1.75,2.23 -1.75,7.2c0,6.71 4.76,10.45 4.76,10.45c0,0 0.78,1.13 0.78,2.46c0,1.32 -0.67,2.57 -0.67,2.57c0,0 -0.5,0.13 -0.65,0.32c-0.14,0.18 -0.7,4.98 -0.7,4.98c0,0 0.8,1.14 4.08,1.14c3.29,0 4.09,-1.14 4.09,-1.14c0,0 -0.56,-4.8 -0.71,-4.98c-0.14,-0.19 -0.64,-0.32 -0.64,-0.32l-0.01,0zm-8.58,-10.97c-1.01,-4.14 0.26,-5.66 0.26,-5.66c0,0 0.41,3.58 1.23,6.04c0.82,2.46 2.72,5.1 2.72,5.1c0,0 -3.19,-1.34 -4.2,-5.48l-0.01,0zm10.21,0.38c0.82,-2.46 1.23,-6.04 1.23,-6.04c0,0 1.27,1.53 0.26,5.67c-1.01,4.14 -4.2,5.47 -4.2,5.47c0,0 1.89,-2.64 2.71,-5.1l0,0z" fill="#ffffff" id="svg_1"/>
 </g>
</svg>