<?xml version="1.0"?>
<svg width="40" height="40" xmlns="http://www.w3.org/2000/svg" xmlns:svg="http://www.w3.org/2000/svg">
 <g class="layer">
  <title>Layer 1</title>
  <path d="m27.92,33.93c0,0 0.11,-0.27 0.13,-0.34c0.02,-0.07 -0.23,-1.44 -0.23,-1.44c-0.01,-0.01 -0.04,-0.02 -0.09,-0.01l0,-4.52l0,0l0,-0.01l0,-0.03l-0.02,0l-1.51,-2.71l-1.55,0l0,-1.3l-0.83,0c-0.01,-0.54 -0.37,-0.98 -0.67,-1.26c-0.21,-0.2 -0.39,-0.32 -0.39,-0.32l-0.09,0c-1.7,-0.2 -1.63,-1.84 -1.58,-2.28c0.69,-0.27 1.15,-0.76 1.15,-1.34c0,-0.5 -0.35,-0.95 -0.9,-1.22c2.7,-0.32 3.86,-1.36 4.35,-2.29c2.05,-1.95 3.03,-1.95 3.15,-2.11c0.09,-1.19 -1.2,-0.98 -1.2,-0.98l-1.65,1.22c0,0 0,0.03 -0.01,0.09c-0.24,-0.49 -0.86,-0.83 -0.9,-0.85c0,-1.36 -0.15,-5.21 2.17,-7.17c-0.48,-0.04 -14.49,-0.08 -14.54,-0.04c0,0 2.56,2.01 2.22,7.25l-0.01,0c0,0 -0.53,0.08 -0.93,0.78c-0.01,-0.05 -0.01,-0.07 0,-0.06l-1.66,-1.22c0,0 -1.28,-0.21 -1.2,0.98c0.12,0.16 1.15,0.16 3.29,2.24c0,0.01 0,0 0,-0.03c0.88,1.58 2.86,2.02 4.23,2.19c-0.54,0.27 -0.89,0.72 -0.89,1.22c0,0.57 0.45,1.06 1.12,1.32c0.04,0.48 0.07,2.29 -1.57,2.29c-0.16,0 0.01,0 0.37,0.01l-0.39,0c0,0 -0.18,0.11 -0.39,0.3c-0.31,0.27 -0.7,0.72 -0.71,1.28l-0.84,0l0,1.3l-1.58,0l-1.47,2.71l0,0l0,4.56c-0.07,-0.01 -0.11,0 -0.12,0.01c0,0 -0.25,1.38 -0.23,1.44c0.02,0.07 0.13,0.34 0.13,0.34c0,0 -1.26,0.19 -1.06,0.81c0.22,0.31 1.01,0.31 1.21,0.17c0.74,-0.72 1.46,-1.23 1.74,-1.42l12.06,0c0.28,0.19 1,0.7 1.74,1.42c0.2,0.14 0.99,0.14 1.21,-0.17c0.2,-0.62 -1.06,-0.81 -1.06,-0.81z" fill="#ffffff" id="svg_1"/>
 </g>
</svg>